<svg width="41" height="41" viewBox="0 0 41 41" fill="none" xmlns="http://www.w3.org/2000/svg">
<g id="bxs:bus">
<rect width="40" height="40" transform="translate(0.5 0.890137)" fill="white"/>
<path id="Vector" d="M35.4999 10.9251C35.5049 10.6818 35.4883 8.48345 33.3333 6.36678C31.2116 4.28345 29.0716 4.22345 28.8333 4.22345H12.1599C11.7616 4.22345 9.67159 4.32845 7.64659 6.39345C5.55992 8.52012 5.49992 10.6551 5.49992 10.8901V15.8901H3.83325V20.8901H5.49992V30.8901C5.49992 32.1134 6.17659 33.1784 7.16659 33.7584V35.8901C7.16659 36.3321 7.34218 36.7561 7.65474 37.0686C7.9673 37.3812 8.39122 37.5568 8.83325 37.5568H10.4999C10.9419 37.5568 11.3659 37.3812 11.6784 37.0686C11.991 36.7561 12.1666 36.3321 12.1666 35.8901V34.2234H28.8333V35.8901C28.8333 36.3321 29.0088 36.7561 29.3214 37.0686C29.634 37.3812 30.0579 37.5568 30.4999 37.5568H32.1666C32.6086 37.5568 33.0325 37.3812 33.3451 37.0686C33.6577 36.7561 33.8333 36.3321 33.8333 35.8901V33.7618C34.3389 33.4718 34.7592 33.0537 35.0518 32.5495C35.3444 32.0454 35.499 31.473 35.4999 30.8901V20.8901H37.1666V15.8901H35.4999V10.9251ZM15.4999 7.55678H25.4999V10.8901H15.4999V7.55678ZM11.3333 30.8901C10.67 30.8899 10.034 30.6262 9.56514 30.157C9.0963 29.6879 8.83303 29.0517 8.83325 28.3885C8.83347 27.7252 9.09716 27.0892 9.56632 26.6203C10.0355 26.1515 10.6717 25.8882 11.3349 25.8884C11.9982 25.8887 12.6342 26.1524 13.103 26.6215C13.5719 27.0907 13.8351 27.7269 13.8349 28.3901C13.8347 29.0534 13.571 29.6894 13.1019 30.1582C12.6327 30.6271 11.9965 30.8903 11.3333 30.8901ZM18.8333 22.5568H8.83325V14.2234H18.8333V22.5568ZM29.6666 30.8901C29.0033 30.8899 28.3673 30.6262 27.8985 30.157C27.4296 29.6879 27.1664 29.0517 27.1666 28.3885C27.1668 27.7252 27.4305 27.0892 27.8997 26.6203C28.3688 26.1515 29.005 25.8882 29.6683 25.8884C30.3315 25.8887 30.9675 26.1524 31.4364 26.6215C31.9052 27.0907 32.1685 27.7269 32.1683 28.3901C32.168 29.0534 31.9043 29.6894 31.4352 30.1582C30.966 30.6271 30.3298 30.8903 29.6666 30.8901ZM32.1666 22.5568H22.1666V14.2234H32.1666V22.5568Z" fill="#B6B6B6"/>
</g>
</svg>
